<svg xmlns="http://www.w3.org/2000/svg" viewBox="0 0 800 400" width="800" height="400" font-family="Inter, system-ui, -apple-system, sans-serif" font-size="12">
  <rect width="800" height="400" fill="#0a0a0c"/>
  <text x="40.0" y="30.0" fill="#ffffff" text-anchor="start" font-size="18" font-weight="600">Adaptation faithfulness — requested vs measured</text>
  <rect x="70.0" y="60.0" width="690.0" height="260.0" fill="#0a0a0c" opacity="1.00"/>
  <line x1="70.0" y1="60.0" x2="70.0" y2="320.0" stroke="#3a3a3c" stroke-width="1.0"/>
  <line x1="70.0" y1="320.0" x2="760.0" y2="320.0" stroke="#3a3a3c" stroke-width="1.0"/>
  <line x1="70.0" y1="320.0" x2="760.0" y2="60.0" stroke="#5e5ce6" stroke-width="1.5" stroke-dasharray="4,3"/>
  <line x1="66.0" y1="320.0" x2="70.0" y2="320.0" stroke="#3a3a3c" stroke-width="1.0"/>
  <line x1="70.0" y1="320.0" x2="70.0" y2="324.0" stroke="#3a3a3c" stroke-width="1.0"/>
  <text x="62.0" y="324.0" fill="#8e8e93" text-anchor="end" font-size="11" font-weight="400">0.00</text>
  <text x="70.0" y="336.0" fill="#8e8e93" text-anchor="middle" font-size="11" font-weight="400">0.00</text>
  <line x1="66.0" y1="255.0" x2="70.0" y2="255.0" stroke="#3a3a3c" stroke-width="1.0"/>
  <line x1="242.5" y1="320.0" x2="242.5" y2="324.0" stroke="#3a3a3c" stroke-width="1.0"/>
  <text x="62.0" y="259.0" fill="#8e8e93" text-anchor="end" font-size="11" font-weight="400">0.25</text>
  <text x="242.5" y="336.0" fill="#8e8e93" text-anchor="middle" font-size="11" font-weight="400">0.25</text>
  <line x1="66.0" y1="190.0" x2="70.0" y2="190.0" stroke="#3a3a3c" stroke-width="1.0"/>
  <line x1="415.0" y1="320.0" x2="415.0" y2="324.0" stroke="#3a3a3c" stroke-width="1.0"/>
  <text x="62.0" y="194.0" fill="#8e8e93" text-anchor="end" font-size="11" font-weight="400">0.50</text>
  <text x="415.0" y="336.0" fill="#8e8e93" text-anchor="middle" font-size="11" font-weight="400">0.50</text>
  <line x1="66.0" y1="125.0" x2="70.0" y2="125.0" stroke="#3a3a3c" stroke-width="1.0"/>
  <line x1="587.5" y1="320.0" x2="587.5" y2="324.0" stroke="#3a3a3c" stroke-width="1.0"/>
  <text x="62.0" y="129.0" fill="#8e8e93" text-anchor="end" font-size="11" font-weight="400">0.75</text>
  <text x="587.5" y="336.0" fill="#8e8e93" text-anchor="middle" font-size="11" font-weight="400">0.75</text>
  <line x1="66.0" y1="60.0" x2="70.0" y2="60.0" stroke="#3a3a3c" stroke-width="1.0"/>
  <line x1="760.0" y1="320.0" x2="760.0" y2="324.0" stroke="#3a3a3c" stroke-width="1.0"/>
  <text x="62.0" y="64.0" fill="#8e8e93" text-anchor="end" font-size="11" font-weight="400">1.00</text>
  <text x="760.0" y="336.0" fill="#8e8e93" text-anchor="middle" font-size="11" font-weight="400">1.00</text>
  <text x="415.0" y="395.0" fill="#e5e5ea" text-anchor="middle" font-size="12" font-weight="400">requested axis value</text>
  <text x="20.0" y="190.0" fill="#e5e5ea" text-anchor="middle" font-size="12" font-weight="400">measured response signal</text>
</svg>